<svg width="20" height="18" viewBox="0 0 8 6" fill="none" xmlns="http://www.w3.org/2000/svg">
<path d="M0.615385 0C0.275385 0 0 0.244091 0 0.545455V1.36364H3.38462H8V1.09091C8 0.789545 7.72462 0.545455 7.38462 0.545455H2.83053L2.64062 0.264737C2.52955 0.100555 2.32929 0 2.11298 0H0.615385ZM0.307692 1.90909C0.137846 1.90909 0 2.03127 0 2.18182V5.45455C0 5.75591 0.275385 6 0.615385 6H7.38462C7.72462 6 8 5.75591 8 5.45455V2.18182C8 2.03127 7.86215 1.90909 7.69231 1.90909H0.307692Z" fill="#353535"/>
</svg>
 